<svg width="46" height="58" viewBox="0 0 46 58" fill="none" xmlns="http://www.w3.org/2000/svg">
<path d="M15.5745 37.0613C13.5808 37.3326 11.4844 36.9253 9.65838 35.7535C7.56657 34.4111 5.12021 34.0714 2.87976 34.6071" stroke="#E7A9B3" stroke-width="2" stroke-miterlimit="10" stroke-linecap="round" stroke-linejoin="round"/>
<path d="M10.5661 47.9677C11.4472 47.9677 12.1614 47.2536 12.1614 46.3725C12.1614 45.4915 11.4472 44.7773 10.5661 44.7773C9.68514 44.7773 8.97095 45.4915 8.97095 46.3725C8.97095 47.2536 9.68514 47.9677 10.5661 47.9677Z" fill="#E7A9B3"/>
<path d="M8.03467 52.4473C8.77141 52.4473 9.36865 51.85 9.36865 51.1133C9.36865 50.3765 8.77141 49.7793 8.03467 49.7793C7.29793 49.7793 6.70068 50.3765 6.70068 51.1133C6.70068 51.85 7.29793 52.4473 8.03467 52.4473Z" fill="#E7A9B3"/>
<path d="M8.266 43.011C9.35797 43.011 10.2432 42.1258 10.2432 41.0338C10.2432 39.9419 9.35797 39.0566 8.266 39.0566C7.17403 39.0566 6.28882 39.9419 6.28882 41.0338C6.28882 42.1258 7.17403 43.011 8.266 43.011Z" fill="#E7A9B3"/>
<path d="M18.2443 14.1527L33.8263 29.7347C36.3154 32.2239 40.3512 32.2239 42.8404 29.7347C45.3296 27.2456 45.3296 23.2097 42.8404 20.7206L36.2698 14.1499L18.2443 14.1527Z" stroke="#E7A9B3" stroke-width="2" stroke-miterlimit="10" stroke-linecap="round" stroke-linejoin="round"/>
<path d="M38.1083 25.7314C38.9893 25.7314 39.7035 25.0172 39.7035 24.1362C39.7035 23.2552 38.9893 22.541 38.1083 22.541C37.2273 22.541 36.5131 23.2552 36.5131 24.1362C36.5131 25.0172 37.2273 25.7314 38.1083 25.7314Z" fill="#E7A9B3"/>
<path d="M31.8233 22.3694C32.9152 22.3694 33.8004 21.4842 33.8004 20.3922C33.8004 19.3003 32.9152 18.415 31.8233 18.415C30.7313 18.415 29.8461 19.3003 29.8461 20.3922C29.8461 21.4842 30.7313 22.3694 31.8233 22.3694Z" fill="#E7A9B3"/>
<path d="M2.02439 23.9941H16.4376C17.0034 23.9941 17.4619 24.4527 17.4619 25.0185V27.5654C17.4619 28.1312 17.0034 28.5898 16.4376 28.5898H2.02439C1.45859 28.5898 1 28.1312 1 27.5654V25.0185C1 24.4528 1.4587 23.9941 2.02439 23.9941Z" stroke="#E7A9B3" stroke-width="2" stroke-miterlimit="10" stroke-linecap="round" stroke-linejoin="round"/>
<path d="M2.85693 28.7036V50.626C2.85693 54.1463 5.71066 57 9.23091 57C12.7512 57 15.6049 54.1463 15.6049 50.626V28.7036" stroke="#E7A9B3" stroke-width="2" stroke-miterlimit="10" stroke-linecap="round" stroke-linejoin="round"/>
<path d="M14.4059 11.4917L24.5976 1.30006C24.9976 0.89998 25.6462 0.89998 26.0463 1.30006L27.8471 3.10094C28.2472 3.50102 28.2472 4.14957 27.8471 4.54965L17.6555 14.7413C17.2554 15.1414 16.6069 15.1414 16.2068 14.7413L14.4059 12.9404C14.0058 12.5403 14.0058 11.8918 14.4059 11.4917Z" stroke="#E7A9B3" stroke-width="2" stroke-miterlimit="10" stroke-linecap="round" stroke-linejoin="round"/>
<path d="M18.2952 14.2034L33.8263 29.7346C36.3154 32.2237 40.3513 32.2237 42.8405 29.7346C45.3296 27.2454 45.3296 23.2095 42.8405 20.7204L27.29 5.16992" stroke="#E7A9B3" stroke-width="2" stroke-miterlimit="10" stroke-linecap="round" stroke-linejoin="round"/>
<path d="M6.16841 11.6069L3.84179 14.3251C2.80169 15.5402 2.87181 17.3511 4.00285 18.4822C5.19888 19.6782 7.13793 19.6782 8.33397 18.4822C9.46501 17.3511 9.53512 15.5402 8.49502 14.3251L6.16841 11.6069Z" stroke="#E7A9B3" stroke-width="2" stroke-miterlimit="10" stroke-linecap="round" stroke-linejoin="round"/>
</svg>
