<svg width="49" height="58" viewBox="0 0 49 58" fill="none" xmlns="http://www.w3.org/2000/svg">
<path d="M39.7202 56.9999C42.242 56.9999 44.2254 54.9694 44.2254 52.4646C44.2254 49.9598 42.1811 47.8037 39.6593 47.8037" stroke="white" stroke-width="2" stroke-miterlimit="10" stroke-linecap="round" stroke-linejoin="round"/>
<path d="M34.3627 38.738H43.4339C45.9557 38.738 48 36.7075 48 34.2027C48 31.6979 45.9557 29.6675 43.4339 29.6675H34.3627" stroke="white" stroke-width="2" stroke-miterlimit="10" stroke-linecap="round" stroke-linejoin="round"/>
<path d="M34.3627 47.8085H43.0687C45.5905 47.8085 47.6347 45.7781 47.6347 43.2733C47.6347 40.7685 45.5905 38.738 43.0687 38.738" stroke="white" stroke-width="2" stroke-miterlimit="10" stroke-linecap="round" stroke-linejoin="round"/>
<path d="M41.6075 29.6676C44.1293 29.6676 46.1736 27.6371 46.1736 25.1323C46.1736 22.6275 44.1293 20.5971 41.6075 20.5971L24.2564 20.5923V20.5879C27.7163 13.715 28.5349 11.5178 29.2486 8.26347C29.9624 5.00922 29.0978 2.49282 26.3851 1.39251C23.6724 0.292198 21.2096 1.58444 20.1018 4.27886C16.6549 10.8855 12.7831 14.7677 8.08204 18.4598C3.61386 21.969 1 27.3102 1 32.968V44.9027C1 51.5815 6.45055 56.9959 13.1746 56.9967" stroke="white" stroke-width="2" stroke-miterlimit="10" stroke-linecap="round" stroke-linejoin="round"/>
<path d="M22.4301 56.9968L30.4663 57" stroke="white" stroke-width="2" stroke-miterlimit="10" stroke-linecap="round" stroke-linejoin="round"/>
</svg>
