<svg width="18" height="16" viewBox="0 0 18 16" fill="none" xmlns="http://www.w3.org/2000/svg">
<path d="M17.7091 7.23658C17.8955 7.43277 18 7.69778 18 7.97397C18 8.25016 17.8955 8.51517 17.7091 8.71136L11.0415 15.6679C10.95 15.7704 10.8396 15.8526 10.7169 15.9097C10.5942 15.9667 10.4618 15.9974 10.3275 15.9998C10.1932 16.0023 10.0598 15.9765 9.93526 15.9241C9.81073 15.8716 9.6976 15.7935 9.60263 15.6944C9.50766 15.5953 9.43279 15.4773 9.38248 15.3473C9.33218 15.2174 9.30748 15.0782 9.30985 14.9381C9.31222 14.798 9.34161 14.6598 9.39628 14.5318C9.45094 14.4038 9.52975 14.2886 9.62802 14.1931L14.5887 9.01745L1.00014 9.01745C0.734886 9.01745 0.480495 8.90751 0.292932 8.71182C0.105369 8.51613 -7.59914e-07 8.25072 -7.98401e-07 7.97397C-8.36889e-07 7.69723 0.105369 7.43181 0.292932 7.23612C0.480495 7.04043 0.734885 6.93049 1.00014 6.93049L14.5887 6.93049L9.62801 1.75484C9.45135 1.55703 9.35517 1.2954 9.35974 1.02507C9.36431 0.754739 9.46928 0.496812 9.65252 0.305629C9.83577 0.114445 10.083 0.00493336 10.3421 0.000163635C10.6012 -0.00460609 10.852 0.0957388 11.0415 0.280059L17.7091 7.23658Z" fill="white"/>
</svg>
